<svg width="122" height="12" viewBox="0 0 122 12" fill="none" xmlns="http://www.w3.org/2000/svg">
<path d="M6.42383 10H0.113281V1.27539H6.42383V2.96289H2.35156V4.46875H6.13086V6.15625H2.35156V8.3125H6.42383V10ZM14.6094 10H8.31641V1.27539H10.5664V8.3125H14.6094V10ZM23.4336 7.32812C23.4336 7.75 23.3477 8.12695 23.1758 8.45898C23.0078 8.79102 22.7754 9.06641 22.4785 9.28516C22.1348 9.54297 21.7559 9.72656 21.3418 9.83594C20.9316 9.94531 20.4102 10 19.7773 10H15.9688V1.27539H19.3555C20.0586 1.27539 20.5723 1.29883 20.8965 1.3457C21.2246 1.39258 21.5488 1.49609 21.8691 1.65625C22.2012 1.82422 22.4473 2.05078 22.6074 2.33594C22.7715 2.61719 22.8535 2.93945 22.8535 3.30273C22.8535 3.72461 22.7422 4.09766 22.5195 4.42188C22.2969 4.74219 21.9824 4.99219 21.5762 5.17188V5.21875C22.1465 5.33203 22.5977 5.56641 22.9297 5.92188C23.2656 6.27734 23.4336 6.74609 23.4336 7.32812ZM20.5508 3.74219C20.5508 3.59766 20.5137 3.45312 20.4395 3.30859C20.3691 3.16406 20.2422 3.05664 20.0586 2.98633C19.8945 2.92383 19.6895 2.89062 19.4434 2.88672C19.2012 2.87891 18.8594 2.875 18.418 2.875H18.207V4.7207H18.5586C18.9141 4.7207 19.2168 4.71484 19.4668 4.70312C19.7168 4.69141 19.9141 4.65234 20.0586 4.58594C20.2617 4.49609 20.3945 4.38086 20.457 4.24023C20.5195 4.0957 20.5508 3.92969 20.5508 3.74219ZM21.1016 7.29297C21.1016 7.01562 21.0469 6.80273 20.9375 6.6543C20.832 6.50195 20.6504 6.38867 20.3926 6.31445C20.2168 6.26367 19.9746 6.23633 19.666 6.23242C19.3574 6.22852 19.0352 6.22656 18.6992 6.22656H18.207V8.40039H18.3711C19.0039 8.40039 19.457 8.39844 19.7305 8.39453C20.0039 8.39062 20.2559 8.33984 20.4863 8.24219C20.7207 8.14453 20.8809 8.01562 20.9668 7.85547C21.0566 7.69141 21.1016 7.50391 21.1016 7.29297ZM29.8262 10H24.7168V8.45312H26.1465V2.82227H24.7168V1.27539H29.8262V2.82227H28.3965V8.45312H29.8262V10ZM38.6445 7.25781C38.6445 8.11719 38.2793 8.81641 37.5488 9.35547C36.8223 9.89062 35.834 10.1582 34.584 10.1582C33.8613 10.1582 33.2305 10.0957 32.6914 9.9707C32.1562 9.8418 31.6543 9.67969 31.1855 9.48438V7.39258H31.4316C31.8965 7.76367 32.416 8.04883 32.9902 8.24805C33.5684 8.44727 34.123 8.54688 34.6543 8.54688C34.791 8.54688 34.9707 8.53516 35.1934 8.51172C35.416 8.48828 35.5977 8.44922 35.7383 8.39453C35.9102 8.32422 36.0508 8.23633 36.1602 8.13086C36.2734 8.02539 36.3301 7.86914 36.3301 7.66211C36.3301 7.4707 36.248 7.30664 36.084 7.16992C35.9238 7.0293 35.6875 6.92188 35.375 6.84766C35.0469 6.76953 34.6992 6.69727 34.332 6.63086C33.9688 6.56055 33.627 6.47266 33.3066 6.36719C32.5723 6.12891 32.043 5.80664 31.7188 5.40039C31.3984 4.99023 31.2383 4.48242 31.2383 3.87695C31.2383 3.06445 31.6016 2.40234 32.3281 1.89062C33.0586 1.375 33.9961 1.11719 35.1406 1.11719C35.7148 1.11719 36.2812 1.17383 36.8398 1.28711C37.4023 1.39648 37.8887 1.53516 38.2988 1.70312V3.71289H38.0586C37.707 3.43164 37.2754 3.19727 36.7637 3.00977C36.2559 2.81836 35.7363 2.72266 35.2051 2.72266C35.0176 2.72266 34.8301 2.73633 34.6426 2.76367C34.459 2.78711 34.2812 2.83398 34.1094 2.9043C33.957 2.96289 33.8262 3.05273 33.7168 3.17383C33.6074 3.29102 33.5527 3.42578 33.5527 3.57812C33.5527 3.80859 33.6406 3.98633 33.8164 4.11133C33.9922 4.23242 34.3242 4.34375 34.8125 4.44531C35.1328 4.51172 35.4395 4.57617 35.7324 4.63867C36.0293 4.70117 36.3477 4.78711 36.6875 4.89648C37.3555 5.11523 37.8477 5.41406 38.1641 5.79297C38.4844 6.16797 38.6445 6.65625 38.6445 7.25781ZM51.2773 7.25781C51.2773 8.11719 50.9121 8.81641 50.1816 9.35547C49.4551 9.89062 48.4668 10.1582 47.2168 10.1582C46.4941 10.1582 45.8633 10.0957 45.3242 9.9707C44.7891 9.8418 44.2871 9.67969 43.8184 9.48438V7.39258H44.0645C44.5293 7.76367 45.0488 8.04883 45.623 8.24805C46.2012 8.44727 46.7559 8.54688 47.2871 8.54688C47.4238 8.54688 47.6035 8.53516 47.8262 8.51172C48.0488 8.48828 48.2305 8.44922 48.3711 8.39453C48.543 8.32422 48.6836 8.23633 48.793 8.13086C48.9062 8.02539 48.9629 7.86914 48.9629 7.66211C48.9629 7.4707 48.8809 7.30664 48.7168 7.16992C48.5566 7.0293 48.3203 6.92188 48.0078 6.84766C47.6797 6.76953 47.332 6.69727 46.9648 6.63086C46.6016 6.56055 46.2598 6.47266 45.9395 6.36719C45.2051 6.12891 44.6758 5.80664 44.3516 5.40039C44.0312 4.99023 43.8711 4.48242 43.8711 3.87695C43.8711 3.06445 44.2344 2.40234 44.9609 1.89062C45.6914 1.375 46.6289 1.11719 47.7734 1.11719C48.3477 1.11719 48.9141 1.17383 49.4727 1.28711C50.0352 1.39648 50.5215 1.53516 50.9316 1.70312V3.71289H50.6914C50.3398 3.43164 49.9082 3.19727 49.3965 3.00977C48.8887 2.81836 48.3691 2.72266 47.8379 2.72266C47.6504 2.72266 47.4629 2.73633 47.2754 2.76367C47.0918 2.78711 46.9141 2.83398 46.7422 2.9043C46.5898 2.96289 46.459 3.05273 46.3496 3.17383C46.2402 3.29102 46.1855 3.42578 46.1855 3.57812C46.1855 3.80859 46.2734 3.98633 46.4492 4.11133C46.625 4.23242 46.957 4.34375 47.4453 4.44531C47.7656 4.51172 48.0723 4.57617 48.3652 4.63867C48.6621 4.70117 48.9805 4.78711 49.3203 4.89648C49.9883 5.11523 50.4805 5.41406 50.7969 5.79297C51.1172 6.16797 51.2773 6.65625 51.2773 7.25781ZM61.3086 5.64062C61.3086 7.03125 60.9102 8.13672 60.1133 8.95703C59.3164 9.77344 58.2148 10.1816 56.8086 10.1816C55.4062 10.1816 54.3066 9.77344 53.5098 8.95703C52.7129 8.13672 52.3145 7.03125 52.3145 5.64062C52.3145 4.23828 52.7129 3.13086 53.5098 2.31836C54.3066 1.50195 55.4062 1.09375 56.8086 1.09375C58.207 1.09375 59.3066 1.50195 60.1074 2.31836C60.9082 3.13086 61.3086 4.23828 61.3086 5.64062ZM58.3262 7.84961C58.5449 7.58398 58.707 7.27148 58.8125 6.91211C58.918 6.54883 58.9707 6.12305 58.9707 5.63477C58.9707 5.11133 58.9102 4.66602 58.7891 4.29883C58.668 3.93164 58.5098 3.63477 58.3145 3.4082C58.1152 3.17383 57.8848 3.00391 57.623 2.89844C57.3652 2.79297 57.0957 2.74023 56.8145 2.74023C56.5293 2.74023 56.2598 2.79102 56.0059 2.89258C55.7559 2.99414 55.5254 3.16211 55.3145 3.39648C55.1191 3.61523 54.959 3.91797 54.834 4.30469C54.7129 4.6875 54.6523 5.13281 54.6523 5.64062C54.6523 6.16016 54.7109 6.60352 54.8281 6.9707C54.9492 7.33398 55.1074 7.63086 55.3027 7.86133C55.498 8.0918 55.7266 8.26172 55.9883 8.37109C56.25 8.48047 56.5254 8.53516 56.8145 8.53516C57.1035 8.53516 57.3789 8.48047 57.6406 8.37109C57.9023 8.25781 58.1309 8.08398 58.3262 7.84961ZM70.6719 6.8418C70.6719 7.91992 70.3438 8.74609 69.6875 9.32031C69.0312 9.89453 68.0645 10.1816 66.7871 10.1816C65.5098 10.1816 64.543 9.89453 63.8867 9.32031C63.2344 8.74609 62.9082 7.92188 62.9082 6.84766V1.27539H65.1699V6.71875C65.1699 7.32422 65.2969 7.77539 65.5508 8.07227C65.8047 8.36914 66.2168 8.51758 66.7871 8.51758C67.3496 8.51758 67.7598 8.375 68.0176 8.08984C68.2793 7.80469 68.4102 7.34766 68.4102 6.71875V1.27539H70.6719V6.8418ZM79.7656 7.25781C79.7656 8.11719 79.4004 8.81641 78.6699 9.35547C77.9434 9.89062 76.9551 10.1582 75.7051 10.1582C74.9824 10.1582 74.3516 10.0957 73.8125 9.9707C73.2773 9.8418 72.7754 9.67969 72.3066 9.48438V7.39258H72.5527C73.0176 7.76367 73.5371 8.04883 74.1113 8.24805C74.6895 8.44727 75.2441 8.54688 75.7754 8.54688C75.9121 8.54688 76.0918 8.53516 76.3145 8.51172C76.5371 8.48828 76.7188 8.44922 76.8594 8.39453C77.0312 8.32422 77.1719 8.23633 77.2812 8.13086C77.3945 8.02539 77.4512 7.86914 77.4512 7.66211C77.4512 7.4707 77.3691 7.30664 77.2051 7.16992C77.0449 7.0293 76.8086 6.92188 76.4961 6.84766C76.168 6.76953 75.8203 6.69727 75.4531 6.63086C75.0898 6.56055 74.748 6.47266 74.4277 6.36719C73.6934 6.12891 73.1641 5.80664 72.8398 5.40039C72.5195 4.99023 72.3594 4.48242 72.3594 3.87695C72.3594 3.06445 72.7227 2.40234 73.4492 1.89062C74.1797 1.375 75.1172 1.11719 76.2617 1.11719C76.8359 1.11719 77.4023 1.17383 77.9609 1.28711C78.5234 1.39648 79.0098 1.53516 79.4199 1.70312V3.71289H79.1797C78.8281 3.43164 78.3965 3.19727 77.8848 3.00977C77.377 2.81836 76.8574 2.72266 76.3262 2.72266C76.1387 2.72266 75.9512 2.73633 75.7637 2.76367C75.5801 2.78711 75.4023 2.83398 75.2305 2.9043C75.0781 2.96289 74.9473 3.05273 74.8379 3.17383C74.7285 3.29102 74.6738 3.42578 74.6738 3.57812C74.6738 3.80859 74.7617 3.98633 74.9375 4.11133C75.1133 4.23242 75.4453 4.34375 75.9336 4.44531C76.2539 4.51172 76.5605 4.57617 76.8535 4.63867C77.1504 4.70117 77.4688 4.78711 77.8086 4.89648C78.4766 5.11523 78.9688 5.41406 79.2852 5.79297C79.6055 6.16797 79.7656 6.65625 79.7656 7.25781ZM89.375 10H87.0488L86.4453 8.23633H83.2109L82.6074 10H80.3398L83.5625 1.27539H86.1523L89.375 10ZM85.9004 6.63672L84.8281 3.50781L83.7559 6.63672H85.9004ZM102.641 10.041L94.8125 6.78906V5.45312L102.641 2.20117V3.88281L97.1621 6.12695L102.641 8.35938V10.041ZM111.189 0.882812L106.543 11.8984H104.744L109.373 0.882812H111.189ZM121.508 6.78906L113.68 10.041V8.35938L119.158 6.12109L113.68 3.88281V2.20117L121.508 5.45312V6.78906Z" fill="white"/>
</svg>
