<svg width="204" height="20" viewBox="0 0 204 20" fill="none" xmlns="http://www.w3.org/2000/svg">
<path d="M11.373 16H0.855469V1.45898H11.373V4.27148H4.58594V6.78125H10.8848V9.59375H4.58594V13.1875H11.373V16ZM25.0156 16H14.5273V1.45898H18.2773V13.1875H25.0156V16ZM39.7227 11.5469C39.7227 12.25 39.5794 12.8783 39.293 13.4316C39.013 13.985 38.6257 14.444 38.1309 14.8086C37.5579 15.2383 36.9264 15.5443 36.2363 15.7266C35.5527 15.9089 34.6836 16 33.6289 16H27.2812V1.45898H32.9258C34.0977 1.45898 34.9538 1.49805 35.4941 1.57617C36.041 1.6543 36.5814 1.82682 37.1152 2.09375C37.6686 2.3737 38.0788 2.7513 38.3457 3.22656C38.6191 3.69531 38.7559 4.23242 38.7559 4.83789C38.7559 5.54102 38.5703 6.16276 38.1992 6.70312C37.8281 7.23698 37.304 7.65365 36.627 7.95312V8.03125C37.5775 8.22005 38.3294 8.61068 38.8828 9.20312C39.4427 9.79557 39.7227 10.5768 39.7227 11.5469ZM34.918 5.57031C34.918 5.32943 34.8561 5.08854 34.7324 4.84766C34.6152 4.60677 34.4036 4.42773 34.0977 4.31055C33.8242 4.20638 33.4824 4.15104 33.0723 4.14453C32.6686 4.13151 32.099 4.125 31.3633 4.125H31.0117V7.20117H31.5977C32.1901 7.20117 32.6947 7.19141 33.1113 7.17188C33.528 7.15234 33.8568 7.08724 34.0977 6.97656C34.4362 6.82682 34.6576 6.63477 34.7617 6.40039C34.8659 6.15951 34.918 5.88281 34.918 5.57031ZM35.8359 11.4883C35.8359 11.026 35.7448 10.6712 35.5625 10.4238C35.3867 10.1699 35.084 9.98112 34.6543 9.85742C34.3613 9.77279 33.9577 9.72721 33.4434 9.7207C32.929 9.71419 32.3919 9.71094 31.832 9.71094H31.0117V13.334H31.2852C32.3398 13.334 33.0951 13.3307 33.5508 13.3242C34.0065 13.3177 34.4264 13.2331 34.8105 13.0703C35.2012 12.9076 35.4681 12.6927 35.6113 12.4258C35.7611 12.1523 35.8359 11.8398 35.8359 11.4883ZM50.377 16H41.8613V13.4219H44.2441V4.03711H41.8613V1.45898H50.377V4.03711H47.9941V13.4219H50.377V16ZM65.0742 11.4297C65.0742 12.862 64.4655 14.0273 63.248 14.9258C62.0371 15.8177 60.39 16.2637 58.3066 16.2637C57.1022 16.2637 56.0508 16.1595 55.1523 15.9512C54.2604 15.7363 53.4238 15.4661 52.6426 15.1406V11.6543H53.0527C53.8275 12.2728 54.6934 12.748 55.6504 13.0801C56.6139 13.4121 57.5384 13.5781 58.4238 13.5781C58.6517 13.5781 58.9512 13.5586 59.3223 13.5195C59.6934 13.4805 59.9961 13.4154 60.2305 13.3242C60.5169 13.207 60.7513 13.0605 60.9336 12.8848C61.1224 12.709 61.2168 12.4486 61.2168 12.1035C61.2168 11.7845 61.0801 11.5111 60.8066 11.2832C60.5397 11.0488 60.1458 10.8698 59.625 10.7461C59.0781 10.6159 58.4987 10.4954 57.8867 10.3848C57.2812 10.2676 56.7116 10.1211 56.1777 9.94531C54.9538 9.54818 54.0716 9.01107 53.5312 8.33398C52.9974 7.65039 52.7305 6.80404 52.7305 5.79492C52.7305 4.44076 53.3359 3.33724 54.5469 2.48438C55.7643 1.625 57.3268 1.19531 59.2344 1.19531C60.1914 1.19531 61.1354 1.28971 62.0664 1.47852C63.0039 1.66081 63.8145 1.89193 64.498 2.17188V5.52148H64.0977C63.5117 5.05273 62.7923 4.66211 61.9395 4.34961C61.0931 4.0306 60.2272 3.87109 59.3418 3.87109C59.0293 3.87109 58.7168 3.89388 58.4043 3.93945C58.0983 3.97852 57.8021 4.05664 57.5156 4.17383C57.2617 4.27148 57.0436 4.42122 56.8613 4.62305C56.679 4.81836 56.5879 5.04297 56.5879 5.29688C56.5879 5.68099 56.7344 5.97721 57.0273 6.18555C57.3203 6.38737 57.8737 6.57292 58.6875 6.74219C59.2214 6.85286 59.7324 6.96029 60.2207 7.06445C60.7155 7.16862 61.2461 7.31185 61.8125 7.49414C62.9258 7.85872 63.7461 8.35677 64.2734 8.98828C64.8073 9.61328 65.0742 10.4271 65.0742 11.4297ZM86.1289 11.4297C86.1289 12.862 85.5202 14.0273 84.3027 14.9258C83.0918 15.8177 81.4447 16.2637 79.3613 16.2637C78.1569 16.2637 77.1055 16.1595 76.207 15.9512C75.3151 15.7363 74.4785 15.4661 73.6973 15.1406V11.6543H74.1074C74.8822 12.2728 75.748 12.748 76.7051 13.0801C77.6686 13.4121 78.5931 13.5781 79.4785 13.5781C79.7064 13.5781 80.0059 13.5586 80.377 13.5195C80.748 13.4805 81.0508 13.4154 81.2852 13.3242C81.5716 13.207 81.806 13.0605 81.9883 12.8848C82.1771 12.709 82.2715 12.4486 82.2715 12.1035C82.2715 11.7845 82.1348 11.5111 81.8613 11.2832C81.5944 11.0488 81.2005 10.8698 80.6797 10.7461C80.1328 10.6159 79.5534 10.4954 78.9414 10.3848C78.3359 10.2676 77.7663 10.1211 77.2324 9.94531C76.0085 9.54818 75.1263 9.01107 74.5859 8.33398C74.0521 7.65039 73.7852 6.80404 73.7852 5.79492C73.7852 4.44076 74.3906 3.33724 75.6016 2.48438C76.819 1.625 78.3815 1.19531 80.2891 1.19531C81.2461 1.19531 82.1901 1.28971 83.1211 1.47852C84.0586 1.66081 84.8691 1.89193 85.5527 2.17188V5.52148H85.1523C84.5664 5.05273 83.847 4.66211 82.9941 4.34961C82.1478 4.0306 81.2819 3.87109 80.3965 3.87109C80.084 3.87109 79.7715 3.89388 79.459 3.93945C79.153 3.97852 78.8568 4.05664 78.5703 4.17383C78.3164 4.27148 78.0983 4.42122 77.916 4.62305C77.7337 4.81836 77.6426 5.04297 77.6426 5.29688C77.6426 5.68099 77.7891 5.97721 78.082 6.18555C78.375 6.38737 78.9284 6.57292 79.7422 6.74219C80.276 6.85286 80.7871 6.96029 81.2754 7.06445C81.7702 7.16862 82.3008 7.31185 82.8672 7.49414C83.9805 7.85872 84.8008 8.35677 85.3281 8.98828C85.862 9.61328 86.1289 10.4271 86.1289 11.4297ZM102.848 8.73438C102.848 11.0521 102.184 12.8945 100.855 14.2617C99.5273 15.6224 97.6914 16.3027 95.3477 16.3027C93.0104 16.3027 91.1777 15.6224 89.8496 14.2617C88.5215 12.8945 87.8574 11.0521 87.8574 8.73438C87.8574 6.39714 88.5215 4.55143 89.8496 3.19727C91.1777 1.83659 93.0104 1.15625 95.3477 1.15625C97.6784 1.15625 99.5111 1.83659 100.846 3.19727C102.18 4.55143 102.848 6.39714 102.848 8.73438ZM97.877 12.416C98.2415 11.9733 98.5117 11.4525 98.6875 10.8535C98.8633 10.248 98.9512 9.53841 98.9512 8.72461C98.9512 7.85221 98.8503 7.11003 98.6484 6.49805C98.4466 5.88607 98.1829 5.39128 97.8574 5.01367C97.5254 4.62305 97.1413 4.33984 96.7051 4.16406C96.2754 3.98828 95.8262 3.90039 95.3574 3.90039C94.8822 3.90039 94.4329 3.98503 94.0098 4.1543C93.5931 4.32357 93.209 4.60352 92.8574 4.99414C92.5319 5.35872 92.265 5.86328 92.0566 6.50781C91.8548 7.14583 91.7539 7.88802 91.7539 8.73438C91.7539 9.60026 91.8516 10.3392 92.0469 10.9512C92.2487 11.5566 92.5124 12.0514 92.8379 12.4355C93.1634 12.8197 93.5443 13.1029 93.9805 13.2852C94.4167 13.4674 94.8757 13.5586 95.3574 13.5586C95.8392 13.5586 96.2982 13.4674 96.7344 13.2852C97.1706 13.0964 97.5514 12.8066 97.877 12.416ZM118.453 10.7363C118.453 12.5332 117.906 13.9102 116.812 14.8672C115.719 15.8242 114.107 16.3027 111.979 16.3027C109.85 16.3027 108.238 15.8242 107.145 14.8672C106.057 13.9102 105.514 12.5365 105.514 10.7461V1.45898H109.283V10.5312C109.283 11.5404 109.495 12.2923 109.918 12.7871C110.341 13.2819 111.028 13.5293 111.979 13.5293C112.916 13.5293 113.6 13.2917 114.029 12.8164C114.465 12.3411 114.684 11.5794 114.684 10.5312V1.45898H118.453V10.7363ZM133.609 11.4297C133.609 12.862 133.001 14.0273 131.783 14.9258C130.572 15.8177 128.925 16.2637 126.842 16.2637C125.637 16.2637 124.586 16.1595 123.688 15.9512C122.796 15.7363 121.959 15.4661 121.178 15.1406V11.6543H121.588C122.363 12.2728 123.229 12.748 124.186 13.0801C125.149 13.4121 126.074 13.5781 126.959 13.5781C127.187 13.5781 127.486 13.5586 127.857 13.5195C128.229 13.4805 128.531 13.4154 128.766 13.3242C129.052 13.207 129.286 13.0605 129.469 12.8848C129.658 12.709 129.752 12.4486 129.752 12.1035C129.752 11.7845 129.615 11.5111 129.342 11.2832C129.075 11.0488 128.681 10.8698 128.16 10.7461C127.613 10.6159 127.034 10.4954 126.422 10.3848C125.816 10.2676 125.247 10.1211 124.713 9.94531C123.489 9.54818 122.607 9.01107 122.066 8.33398C121.533 7.65039 121.266 6.80404 121.266 5.79492C121.266 4.44076 121.871 3.33724 123.082 2.48438C124.299 1.625 125.862 1.19531 127.77 1.19531C128.727 1.19531 129.671 1.28971 130.602 1.47852C131.539 1.66081 132.35 1.89193 133.033 2.17188V5.52148H132.633C132.047 5.05273 131.327 4.66211 130.475 4.34961C129.628 4.0306 128.762 3.87109 127.877 3.87109C127.564 3.87109 127.252 3.89388 126.939 3.93945C126.633 3.97852 126.337 4.05664 126.051 4.17383C125.797 4.27148 125.579 4.42122 125.396 4.62305C125.214 4.81836 125.123 5.04297 125.123 5.29688C125.123 5.68099 125.27 5.97721 125.562 6.18555C125.855 6.38737 126.409 6.57292 127.223 6.74219C127.757 6.85286 128.268 6.96029 128.756 7.06445C129.251 7.16862 129.781 7.31185 130.348 7.49414C131.461 7.85872 132.281 8.35677 132.809 8.98828C133.342 9.61328 133.609 10.4271 133.609 11.4297ZM149.625 16H145.748L144.742 13.0605H139.352L138.346 16H134.566L139.938 1.45898H144.254L149.625 16ZM143.834 10.3945L142.047 5.17969L140.26 10.3945H143.834ZM171.734 16.0684L158.688 10.6484V8.42188L171.734 3.00195V5.80469L162.604 9.54492L171.734 13.2656V16.0684ZM185.982 0.804688L178.238 19.1641H175.24L182.955 0.804688H185.982ZM203.18 10.6484L190.133 16.0684V13.2656L199.264 9.53516L190.133 5.80469V3.00195L203.18 8.42188V10.6484Z" fill="white"/>
</svg>
